<svg xmlns="http://www.w3.org/2000/svg" viewBox="0 0 366 160" width="366" height="160" role="img" aria-label="Econschool ES logo">
  <!-- E — brand ink #1F1F1F -->
  <g fill="#1F1F1F" transform="translate(4,4) scale(0.29221)">
    <g transform="translate(0,520) scale(0.1,-0.1)">
      <path d="M0 4600 l0 -600 2800 0 2800 0 0 600 0 600 -2800 0 -2800 0 0 -600z"/>
      <path d="M0 2600 l0 -600 1760 0 1760 0 0 600 0 600 -1760 0 -1760 0 0 -600z"/>
      <path d="M0 600 l0 -600 2800 0 2800 0 0 600 0 600 -2800 0 -2800 0 0 -600z"/>
    </g>
  </g>
  <!-- S — brand terracotta #A03A2C -->
  <g fill="#A03A2C" transform="translate(4,4) scale(0.29221)">
    <g transform="translate(0,520) scale(0.1,-0.1)">
      <path d="M6720 3880 l0 -1320 640 0 640 0 0 720 0 720 2120 0 2120 0 0 600 0 600 -2760 0 -2760 0 0 -1320z"/>
      <path d="M11040 1920 l0 -720 -2160 0 -2160 0 0 -600 0 -600 2760 0 2760 0 0 1320 0 1320 -600 0 -600 0 0 -720z"/>
    </g>
  </g>
</svg>
