<svg xmlns="http://www.w3.org/2000/svg" viewBox="0 0 118 110" role="img" aria-label="ES — Econschool">
  <path d="M56.90 17.20Q56.50 21.60 56.35 25.70Q56.20 29.80 56.20 32Q56.20 34 56.30 35.80Q56.40 37.60 56.50 38.80L54.20 38.80Q53.20 31.50 51.10 27.25Q49 23 45.65 21.25Q42.30 19.50 37.80 19.50L33.70 19.50Q30.80 19.50 29.30 20Q27.80 20.50 27.30 22Q26.80 23.50 26.80 26.60L26.80 51.40L30 51.40Q33 51.40 35.10 50.15Q37.20 48.90 38.55 46.85Q39.90 44.80 40.70 42.50Q41.50 40.20 41.90 38.20L44.20 38.20Q43.80 43.90 43.85 46.90Q43.90 49.90 43.90 52.40Q43.90 54.90 44 57.90Q44.10 60.90 44.50 66.60L42.20 66.60Q41.70 63.10 40.35 60.10Q39 57.10 36.50 55.25Q34 53.40 30 53.40L26.80 53.40L26.80 78.60Q26.80 81.70 27.30 83.20Q27.80 84.70 29.30 85.20Q30.80 85.70 33.70 85.70L38.60 85.70Q43.10 85.70 46.55 83.75Q50 81.80 52.45 77.10Q54.90 72.40 56.20 64.40L58.50 64.40Q58.20 67.60 58.20 72.80Q58.20 75.10 58.30 79.30Q58.40 83.50 58.90 88Q53.80 87.80 47.40 87.75Q41 87.70 36 87.70L29.60 87.70Q25.70 87.70 21.20 87.75Q16.70 87.80 12.10 87.85Q7.50 87.90 3.40 88L3.40 86Q6.60 85.80 8.20 85.20Q9.80 84.60 10.35 82.80Q10.90 81 10.90 77.40L10.90 27.80Q10.90 24.10 10.35 22.35Q9.80 20.60 8.15 19.95Q6.50 19.30 3.40 19.20L3.40 17.20Q7.50 17.30 12.10 17.35Q16.70 17.40 21.20 17.45Q25.70 17.50 29.60 17.50L36 17.50Q40.60 17.50 46.45 17.45Q52.30 17.40 56.90 17.20" fill="#1F1F1F"/>
  <path d="M87.80 15.90Q93.70 15.90 96.90 17.15Q100.10 18.40 102.40 19.80Q103.60 20.50 104.35 20.85Q105.10 21.20 105.80 21.20Q106.80 21.20 107.25 20.10Q107.70 19 108 16.80L110.30 16.80Q110.20 18.70 110.05 21.35Q109.90 24 109.85 28.30Q109.80 32.60 109.80 39.60L107.50 39.60Q107.10 34.40 105.10 29.50Q103.10 24.60 99.45 21.45Q95.80 18.30 90.50 18.30Q85.70 18.30 82.60 21Q79.50 23.70 79.50 28.50Q79.50 32.50 81.50 35.35Q83.50 38.20 87.35 40.90Q91.20 43.60 96.70 47.40Q101.50 50.50 105.30 53.60Q109.10 56.70 111.40 60.60Q113.70 64.50 113.70 69.90Q113.70 76.50 110.25 80.80Q106.80 85.10 101.20 87.25Q95.60 89.40 88.90 89.40Q82.70 89.40 79 88.20Q75.30 87 72.80 85.70Q70.60 84.30 69.40 84.30Q68.40 84.30 67.95 85.40Q67.50 86.50 67.20 88.70L64.90 88.70Q65.10 86.30 65.15 83.10Q65.20 79.90 65.25 74.75Q65.30 69.60 65.30 61.70L67.60 61.70Q68 68.30 69.85 74.05Q71.70 79.80 75.55 83.30Q79.40 86.80 85.80 86.80Q89.30 86.80 92.05 85.55Q94.80 84.30 96.50 81.80Q98.20 79.30 98.20 75.60Q98.20 71.40 96.25 68.30Q94.30 65.20 90.95 62.50Q87.60 59.80 83.20 57Q78.50 53.90 74.40 50.80Q70.30 47.70 67.85 43.70Q65.40 39.70 65.40 34.20Q65.40 27.90 68.55 23.85Q71.70 19.80 76.85 17.85Q82 15.90 87.80 15.90" fill="#A03A2C"/>
</svg>
