<svg xmlns="http://www.w3.org/2000/svg" viewBox="0 0 512 512" width="512" height="512">
  <rect width="512" height="512" rx="80" fill="#5A1BA6"/>
  <g fill="#FAF7F2" transform="translate(256,256) scale(1.09) translate(-256,-256)">
    <g transform="translate(76,180) scale(0.29221)">
      <g transform="translate(0,520) scale(0.1,-0.1)">
        <path d="M0 4600 l0 -600 2800 0 2800 0 0 600 0 600 -2800 0 -2800 0 0 -600z"/>
        <path d="M0 2600 l0 -600 1760 0 1760 0 0 600 0 600 -1760 0 -1760 0 0 -600z"/>
        <path d="M0 600 l0 -600 2800 0 2800 0 0 600 0 600 -2800 0 -2800 0 0 -600z"/>
        <path d="M6720 3880 l0 -1320 640 0 640 0 0 720 0 720 2120 0 2120 0 0 600 0 600 -2760 0 -2760 0 0 -1320z"/>
        <path d="M11040 1920 l0 -720 -2160 0 -2160 0 0 -600 0 -600 2760 0 2760 0 0 1320 0 1320 -600 0 -600 0 0 -720z"/>
      </g>
    </g>
  </g>
</svg>
